# xmcd
#
# Track frame offsets:
#	150
#	23187
#	41802
#	61218
#	81896
#	105005
#	117000
#
# Disc length: 1823 seconds
#
# Revision: 0
# Processed by: cddbd v1.5.2PL0 Copyright (c) Steve Scherf et al.
# Submitted via: dBpowerAMP V4.0
#
DISCID=4a071d07
DTITLE=Norah Jones -  New York City
DYEAR=2003
DGENRE=Blues
TTITLE0=New York City
TTITLE1=Strange Transmissions
TTITLE2=Deceptively Yours
TTITLE3=All Your Love
TTITLE4=Heart Of Mine
TTITLE5=Things You Don'T Have To Do
TTITLE6=New York City (Radio Edit)
EXTD=
EXTT0=
EXTT1=
EXTT2=
EXTT3=
EXTT4=
EXTT5=
EXTT6=
PLAYORDER=
